<svg xmlns="http://www.w3.org/2000/svg" width="900" height="456" viewBox="0 0 900 456">
<rect width="100%" height="100%" fill="white"/>
<text x="32" y="34" font-family="Arial, sans-serif" font-size="20" font-weight="700" fill="#111">Training HLS latency by design</text>
<text x="32" y="58" font-family="Arial, sans-serif" font-size="12" fill="#555">HLS latency cycles</text>
<line x1="240" y1="77" x2="240" y2="357" stroke="#333" stroke-width="1"/>
<text x="32" y="103" font-family="Arial, sans-serif" font-size="12" fill="#222">T0_sgd_tiled_m_axi</text>
<rect x="240" y="85" width="488.50" height="22" rx="3" fill="#4a6fa5"/>
<text x="734.50" y="101" font-family="Arial, sans-serif" font-size="12" fill="#222">951</text>
<text x="32" y="137" font-family="Arial, sans-serif" font-size="12" fill="#222">T1_momentum_tiled_m_axi</text>
<rect x="240" y="119" width="488.50" height="22" rx="3" fill="#4a6fa5"/>
<text x="734.50" y="135" font-family="Arial, sans-serif" font-size="12" fill="#222">951</text>
<text x="32" y="171" font-family="Arial, sans-serif" font-size="12" fill="#222">T3_cross_entropy_tiled_m_axi</text>
<rect x="240" y="153" width="501.34" height="22" rx="3" fill="#4a6fa5"/>
<text x="747.34" y="169" font-family="Arial, sans-serif" font-size="12" fill="#222">976</text>
<text x="32" y="205" font-family="Arial, sans-serif" font-size="12" fill="#222">T4_tile32_m_axi</text>
<rect x="240" y="187" width="422.75" height="22" rx="3" fill="#4a6fa5"/>
<text x="668.75" y="203" font-family="Arial, sans-serif" font-size="12" fill="#222">823</text>
<text x="32" y="239" font-family="Arial, sans-serif" font-size="12" fill="#222">T5_tile128_m_axi</text>
<rect x="240" y="221" width="620.00" height="22" rx="3" fill="#4a6fa5"/>
<text x="866.00" y="237" font-family="Arial, sans-serif" font-size="12" fill="#222">1207</text>
<text x="32" y="273" font-family="Arial, sans-serif" font-size="12" fill="#222">T6_accum_batch2_m_axi</text>
<rect x="240" y="255" width="488.50" height="22" rx="3" fill="#4a6fa5"/>
<text x="734.50" y="271" font-family="Arial, sans-serif" font-size="12" fill="#222">951</text>
<text x="32" y="307" font-family="Arial, sans-serif" font-size="12" fill="#222">T7_deployable_training_bitstream</text>
<rect x="240" y="289" width="488.50" height="22" rx="3" fill="#4a6fa5"/>
<text x="734.50" y="305" font-family="Arial, sans-serif" font-size="12" fill="#222">951</text>
<text x="32" y="341" font-family="Arial, sans-serif" font-size="12" fill="#222">T8_real_fpga_training_curve_candid</text>
<rect x="240" y="323" width="488.50" height="22" rx="3" fill="#4a6fa5"/>
<text x="734.50" y="339" font-family="Arial, sans-serif" font-size="12" fill="#222">951</text>
</svg>
