<svg xmlns="http://www.w3.org/2000/svg" width="900" height="876" viewBox="0 0 900 876">
<rect width="100%" height="100%" fill="white"/>
<text x="32" y="34" font-family="Arial, sans-serif" font-size="20" font-weight="700" fill="#111">HLS LUT by design</text>
<text x="32" y="58" font-family="Arial, sans-serif" font-size="12" fill="#555">HLS LUT estimate</text>
<line x1="240" y1="77" x2="240" y2="697" stroke="#333" stroke-width="1"/>
<text x="32" y="103" font-family="Arial, sans-serif" font-size="12" fill="#222">I0_baseline_fx16_embedded</text>
<rect x="240" y="85" width="168.22" height="22" rx="3" fill="#4a6fa5"/>
<text x="414.22" y="101" font-family="Arial, sans-serif" font-size="12" fill="#222">1.957e+04</text>
<text x="32" y="137" font-family="Arial, sans-serif" font-size="12" fill="#222">I1_precision_fx8_embedded</text>
<rect x="240" y="119" width="156.94" height="22" rx="3" fill="#4a6fa5"/>
<text x="402.94" y="135" font-family="Arial, sans-serif" font-size="12" fill="#222">1.826e+04</text>
<text x="32" y="171" font-family="Arial, sans-serif" font-size="12" fill="#222">I2_precision_fx24_embedded</text>
<rect x="240" y="153" width="184.32" height="22" rx="3" fill="#4a6fa5"/>
<text x="430.32" y="169" font-family="Arial, sans-serif" font-size="12" fill="#222">2.144e+04</text>
<text x="32" y="205" font-family="Arial, sans-serif" font-size="12" fill="#222">I3_parallel_pe2</text>
<rect x="240" y="187" width="321.71" height="22" rx="3" fill="#4a6fa5"/>
<text x="567.71" y="203" font-family="Arial, sans-serif" font-size="12" fill="#222">3.743e+04</text>
<text x="32" y="239" font-family="Arial, sans-serif" font-size="12" fill="#222">I4_parallel_pe4</text>
<rect x="240" y="221" width="410.01" height="22" rx="3" fill="#4a6fa5"/>
<text x="656.01" y="237" font-family="Arial, sans-serif" font-size="12" fill="#222">4.77e+04</text>
<text x="32" y="273" font-family="Arial, sans-serif" font-size="12" fill="#222">I5_pipeline_latency_first</text>
<rect x="240" y="255" width="320.88" height="22" rx="3" fill="#4a6fa5"/>
<text x="566.88" y="271" font-family="Arial, sans-serif" font-size="12" fill="#222">3.733e+04</text>
<text x="32" y="307" font-family="Arial, sans-serif" font-size="12" fill="#222">I6_pipeline_resource_first</text>
<rect x="240" y="289" width="168.22" height="22" rx="3" fill="#4a6fa5"/>
<text x="414.22" y="305" font-family="Arial, sans-serif" font-size="12" fill="#222">1.957e+04</text>
<text x="32" y="341" font-family="Arial, sans-serif" font-size="12" fill="#222">I7_weight_import_m_axi</text>
<rect x="240" y="323" width="259.86" height="22" rx="3" fill="#4a6fa5"/>
<text x="505.86" y="339" font-family="Arial, sans-serif" font-size="12" fill="#222">3.023e+04</text>
<text x="32" y="375" font-family="Arial, sans-serif" font-size="12" fill="#222">I8_deployable_bitstream_candidate</text>
<rect x="240" y="357" width="168.22" height="22" rx="3" fill="#4a6fa5"/>
<text x="414.22" y="373" font-family="Arial, sans-serif" font-size="12" fill="#222">1.957e+04</text>
<text x="32" y="409" font-family="Arial, sans-serif" font-size="12" fill="#222">I9_board_runtime_candidate</text>
<rect x="240" y="391" width="168.22" height="22" rx="3" fill="#4a6fa5"/>
<text x="414.22" y="407" font-family="Arial, sans-serif" font-size="12" fill="#222">1.957e+04</text>
<text x="32" y="443" font-family="Arial, sans-serif" font-size="12" fill="#222">T0_sgd_tiled_m_axi</text>
<rect x="240" y="425" width="532.32" height="22" rx="3" fill="#4a6fa5"/>
<text x="778.32" y="441" font-family="Arial, sans-serif" font-size="12" fill="#222">6.193e+04</text>
<text x="32" y="477" font-family="Arial, sans-serif" font-size="12" fill="#222">T1_momentum_tiled_m_axi</text>
<rect x="240" y="459" width="532.32" height="22" rx="3" fill="#4a6fa5"/>
<text x="778.32" y="475" font-family="Arial, sans-serif" font-size="12" fill="#222">6.193e+04</text>
<text x="32" y="511" font-family="Arial, sans-serif" font-size="12" fill="#222">T3_cross_entropy_tiled_m_axi</text>
<rect x="240" y="493" width="620.00" height="22" rx="3" fill="#4a6fa5"/>
<text x="866.00" y="509" font-family="Arial, sans-serif" font-size="12" fill="#222">7.214e+04</text>
<text x="32" y="545" font-family="Arial, sans-serif" font-size="12" fill="#222">T4_tile32_m_axi</text>
<rect x="240" y="527" width="531.66" height="22" rx="3" fill="#4a6fa5"/>
<text x="777.66" y="543" font-family="Arial, sans-serif" font-size="12" fill="#222">6.186e+04</text>
<text x="32" y="579" font-family="Arial, sans-serif" font-size="12" fill="#222">T5_tile128_m_axi</text>
<rect x="240" y="561" width="532.56" height="22" rx="3" fill="#4a6fa5"/>
<text x="778.56" y="577" font-family="Arial, sans-serif" font-size="12" fill="#222">6.196e+04</text>
<text x="32" y="613" font-family="Arial, sans-serif" font-size="12" fill="#222">T6_accum_batch2_m_axi</text>
<rect x="240" y="595" width="532.32" height="22" rx="3" fill="#4a6fa5"/>
<text x="778.32" y="611" font-family="Arial, sans-serif" font-size="12" fill="#222">6.193e+04</text>
<text x="32" y="647" font-family="Arial, sans-serif" font-size="12" fill="#222">T7_deployable_training_bitstream</text>
<rect x="240" y="629" width="532.32" height="22" rx="3" fill="#4a6fa5"/>
<text x="778.32" y="645" font-family="Arial, sans-serif" font-size="12" fill="#222">6.193e+04</text>
<text x="32" y="681" font-family="Arial, sans-serif" font-size="12" fill="#222">T8_real_fpga_training_curve_candid</text>
<rect x="240" y="663" width="532.32" height="22" rx="3" fill="#4a6fa5"/>
<text x="778.32" y="679" font-family="Arial, sans-serif" font-size="12" fill="#222">6.193e+04</text>
</svg>
