<svg xmlns="http://www.w3.org/2000/svg" width="900" height="918" viewBox="0 0 900 918">
<rect width="100%" height="100%" fill="white"/>
<text x="32" y="34" font-family="Arial, sans-serif" font-size="20" font-weight="700" fill="#111">Vivado power by design</text>
<text x="32" y="58" font-family="Arial, sans-serif" font-size="12" fill="#555">Implemented design power (W)</text>
<line x1="240" y1="77" x2="240" y2="731" stroke="#333" stroke-width="1"/>
<text x="32" y="103" font-family="Arial, sans-serif" font-size="12" fill="#222">I0_baseline_fx16_embedded</text>
<rect x="240" y="85" width="585.98" height="22" rx="3" fill="#4a6fa5"/>
<text x="831.98" y="101" font-family="Arial, sans-serif" font-size="12" fill="#222">2.842</text>
<text x="32" y="137" font-family="Arial, sans-serif" font-size="12" fill="#222">I1_precision_fx8_embedded</text>
<rect x="240" y="119" width="574.43" height="22" rx="3" fill="#4a6fa5"/>
<text x="820.43" y="135" font-family="Arial, sans-serif" font-size="12" fill="#222">2.786</text>
<text x="32" y="171" font-family="Arial, sans-serif" font-size="12" fill="#222">I2_precision_fx24_embedded</text>
<rect x="240" y="153" width="593.81" height="22" rx="3" fill="#4a6fa5"/>
<text x="839.81" y="169" font-family="Arial, sans-serif" font-size="12" fill="#222">2.88</text>
<text x="32" y="205" font-family="Arial, sans-serif" font-size="12" fill="#222">I3_parallel_pe2</text>
<rect x="240" y="187" width="602.89" height="22" rx="3" fill="#4a6fa5"/>
<text x="848.89" y="203" font-family="Arial, sans-serif" font-size="12" fill="#222">2.924</text>
<text x="32" y="239" font-family="Arial, sans-serif" font-size="12" fill="#222">I4_parallel_pe4</text>
<rect x="240" y="221" width="617.73" height="22" rx="3" fill="#4a6fa5"/>
<text x="863.73" y="237" font-family="Arial, sans-serif" font-size="12" fill="#222">2.996</text>
<text x="32" y="273" font-family="Arial, sans-serif" font-size="12" fill="#222">I5_pipeline_latency_first</text>
<rect x="240" y="255" width="612.78" height="22" rx="3" fill="#4a6fa5"/>
<text x="858.78" y="271" font-family="Arial, sans-serif" font-size="12" fill="#222">2.972</text>
<text x="32" y="307" font-family="Arial, sans-serif" font-size="12" fill="#222">I6_pipeline_resource_first</text>
<rect x="240" y="289" width="585.98" height="22" rx="3" fill="#4a6fa5"/>
<text x="831.98" y="305" font-family="Arial, sans-serif" font-size="12" fill="#222">2.842</text>
<text x="32" y="341" font-family="Arial, sans-serif" font-size="12" fill="#222">I7_weight_import_m_axi</text>
<rect x="240" y="323" width="596.91" height="22" rx="3" fill="#4a6fa5"/>
<text x="842.91" y="339" font-family="Arial, sans-serif" font-size="12" fill="#222">2.895</text>
<text x="32" y="375" font-family="Arial, sans-serif" font-size="12" fill="#222">I8_deployable_bitstream_candidate</text>
<rect x="240" y="357" width="585.98" height="22" rx="3" fill="#4a6fa5"/>
<text x="831.98" y="373" font-family="Arial, sans-serif" font-size="12" fill="#222">2.842</text>
<text x="32" y="409" font-family="Arial, sans-serif" font-size="12" fill="#222">I9_board_runtime_candidate</text>
<rect x="240" y="391" width="585.98" height="22" rx="3" fill="#4a6fa5"/>
<text x="831.98" y="407" font-family="Arial, sans-serif" font-size="12" fill="#222">2.842</text>
<text x="32" y="443" font-family="Arial, sans-serif" font-size="12" fill="#222">T0_sgd_tiled_m_axi</text>
<rect x="240" y="425" width="606.39" height="22" rx="3" fill="#4a6fa5"/>
<text x="852.39" y="441" font-family="Arial, sans-serif" font-size="12" fill="#222">2.941</text>
<text x="32" y="477" font-family="Arial, sans-serif" font-size="12" fill="#222">T1_momentum_tiled_m_axi</text>
<rect x="240" y="459" width="606.39" height="22" rx="3" fill="#4a6fa5"/>
<text x="852.39" y="475" font-family="Arial, sans-serif" font-size="12" fill="#222">2.941</text>
<text x="32" y="511" font-family="Arial, sans-serif" font-size="12" fill="#222">T2_adam_tiled_m_axi</text>
<rect x="240" y="493" width="604.12" height="22" rx="3" fill="#4a6fa5"/>
<text x="850.12" y="509" font-family="Arial, sans-serif" font-size="12" fill="#222">2.93</text>
<text x="32" y="545" font-family="Arial, sans-serif" font-size="12" fill="#222">T3_cross_entropy_tiled_m_axi</text>
<rect x="240" y="527" width="620.00" height="22" rx="3" fill="#4a6fa5"/>
<text x="866.00" y="543" font-family="Arial, sans-serif" font-size="12" fill="#222">3.007</text>
<text x="32" y="579" font-family="Arial, sans-serif" font-size="12" fill="#222">T4_tile32_m_axi</text>
<rect x="240" y="561" width="603.09" height="22" rx="3" fill="#4a6fa5"/>
<text x="849.09" y="577" font-family="Arial, sans-serif" font-size="12" fill="#222">2.925</text>
<text x="32" y="613" font-family="Arial, sans-serif" font-size="12" fill="#222">T5_tile128_m_axi</text>
<rect x="240" y="595" width="608.45" height="22" rx="3" fill="#4a6fa5"/>
<text x="854.45" y="611" font-family="Arial, sans-serif" font-size="12" fill="#222">2.951</text>
<text x="32" y="647" font-family="Arial, sans-serif" font-size="12" fill="#222">T6_accum_batch2_m_axi</text>
<rect x="240" y="629" width="606.39" height="22" rx="3" fill="#4a6fa5"/>
<text x="852.39" y="645" font-family="Arial, sans-serif" font-size="12" fill="#222">2.941</text>
<text x="32" y="681" font-family="Arial, sans-serif" font-size="12" fill="#222">T7_deployable_training_bitstream</text>
<rect x="240" y="663" width="606.39" height="22" rx="3" fill="#4a6fa5"/>
<text x="852.39" y="679" font-family="Arial, sans-serif" font-size="12" fill="#222">2.941</text>
<text x="32" y="715" font-family="Arial, sans-serif" font-size="12" fill="#222">T8_real_fpga_training_curve_candid</text>
<rect x="240" y="697" width="606.39" height="22" rx="3" fill="#4a6fa5"/>
<text x="852.39" y="713" font-family="Arial, sans-serif" font-size="12" fill="#222">2.941</text>
</svg>
