<svg xmlns="http://www.w3.org/2000/svg" width="900" height="540" viewBox="0 0 900 540">
<rect width="100%" height="100%" fill="white"/>
<text x="32" y="34" font-family="Arial, sans-serif" font-size="20" font-weight="700" fill="#111">Inference HLS latency by design</text>
<text x="32" y="58" font-family="Arial, sans-serif" font-size="12" fill="#555">HLS latency cycles</text>
<line x1="240" y1="77" x2="240" y2="425" stroke="#333" stroke-width="1"/>
<text x="32" y="103" font-family="Arial, sans-serif" font-size="12" fill="#222">I0_baseline_fx16_embedded</text>
<rect x="240" y="85" width="596.19" height="22" rx="3" fill="#4a6fa5"/>
<text x="842.19" y="101" font-family="Arial, sans-serif" font-size="12" fill="#222">3.292e+05</text>
<text x="32" y="137" font-family="Arial, sans-serif" font-size="12" fill="#222">I1_precision_fx8_embedded</text>
<rect x="240" y="119" width="599.22" height="22" rx="3" fill="#4a6fa5"/>
<text x="845.22" y="135" font-family="Arial, sans-serif" font-size="12" fill="#222">3.309e+05</text>
<text x="32" y="171" font-family="Arial, sans-serif" font-size="12" fill="#222">I2_precision_fx24_embedded</text>
<rect x="240" y="153" width="596.21" height="22" rx="3" fill="#4a6fa5"/>
<text x="842.21" y="169" font-family="Arial, sans-serif" font-size="12" fill="#222">3.293e+05</text>
<text x="32" y="205" font-family="Arial, sans-serif" font-size="12" fill="#222">I3_parallel_pe2</text>
<rect x="240" y="187" width="419.28" height="22" rx="3" fill="#4a6fa5"/>
<text x="665.28" y="203" font-family="Arial, sans-serif" font-size="12" fill="#222">2.316e+05</text>
<text x="32" y="239" font-family="Arial, sans-serif" font-size="12" fill="#222">I4_parallel_pe4</text>
<rect x="240" y="221" width="314.47" height="22" rx="3" fill="#4a6fa5"/>
<text x="560.47" y="237" font-family="Arial, sans-serif" font-size="12" fill="#222">1.737e+05</text>
<text x="32" y="273" font-family="Arial, sans-serif" font-size="12" fill="#222">I5_pipeline_latency_first</text>
<rect x="240" y="255" width="620.00" height="22" rx="3" fill="#4a6fa5"/>
<text x="866.00" y="271" font-family="Arial, sans-serif" font-size="12" fill="#222">3.424e+05</text>
<text x="32" y="307" font-family="Arial, sans-serif" font-size="12" fill="#222">I6_pipeline_resource_first</text>
<rect x="240" y="289" width="596.19" height="22" rx="3" fill="#4a6fa5"/>
<text x="842.19" y="305" font-family="Arial, sans-serif" font-size="12" fill="#222">3.292e+05</text>
<text x="32" y="341" font-family="Arial, sans-serif" font-size="12" fill="#222">I7_weight_import_m_axi</text>
<rect x="240" y="323" width="414.47" height="22" rx="3" fill="#4a6fa5"/>
<text x="660.47" y="339" font-family="Arial, sans-serif" font-size="12" fill="#222">2.289e+05</text>
<text x="32" y="375" font-family="Arial, sans-serif" font-size="12" fill="#222">I8_deployable_bitstream_candidate</text>
<rect x="240" y="357" width="596.19" height="22" rx="3" fill="#4a6fa5"/>
<text x="842.19" y="373" font-family="Arial, sans-serif" font-size="12" fill="#222">3.292e+05</text>
<text x="32" y="409" font-family="Arial, sans-serif" font-size="12" fill="#222">I9_board_runtime_candidate</text>
<rect x="240" y="391" width="596.19" height="22" rx="3" fill="#4a6fa5"/>
<text x="842.19" y="407" font-family="Arial, sans-serif" font-size="12" fill="#222">3.292e+05</text>
</svg>
